<svg xmlns="http://www.w3.org/2000/svg" viewBox="0 0 282.64 195.15"><defs><style>.cls-1{fill:none;stroke:#000;stroke-miterlimit:10;}</style></defs><g id="レイヤー_2" data-name="レイヤー 2"><g id="レイヤー_1-2" data-name="レイヤー 1"><path class="cls-1" d="M281.46,58.74a66.44,66.44,0,0,0-3.19-13,64.51,64.51,0,0,0-2.62-6.37,67.67,67.67,0,0,0-8.38-13.41,65.63,65.63,0,0,0-5.42-6,67.84,67.84,0,0,0-9.16-7.57A67.06,67.06,0,0,0,240,5.45q-2.31-1-4.71-1.73A67.22,67.22,0,0,0,218.15.5H102.6l11.2,19.41L125,39.33s92.08-.16,93.17,0a29.29,29.29,0,0,1,23.67,19.41,28.32,28.32,0,0,1,1.59,8.46c0,.38,0,.75,0,1.13a29.09,29.09,0,0,1-1.7,9.83,26.77,26.77,0,0,1-2.06,4.52,29.19,29.19,0,0,1-11.88,11.56,24,24,0,0,1-3.05,1.39,28.65,28.65,0,0,1-9.09,2c-.5,0-1,0-1.51,0s-1,0-1.51,0h-54L169.85,117l3.08,5.33h0l8.12,14.08h22.42s7.24-.12,10.7-.12a68,68,0,0,0,11.13-.91l1.32-.23a67.86,67.86,0,0,0,30.67-14.29c1-.84,2-1.7,3-2.59.45-.41.9-.84,1.34-1.28a67.63,67.63,0,0,0,11.66-15.06q1.22-2.13,2.28-4.35a67.43,67.43,0,0,0,5.7-18.19c.07-.41.13-.82.19-1.23,0-.24.07-.48.1-.72a68.44,68.44,0,0,0,.61-9.11A67.34,67.34,0,0,0,281.46,58.74Zm-78-38.82h0Zm56,97.08h0Z"/><path d="M281.46,58.74a66.44,66.44,0,0,0-3.19-13,64.51,64.51,0,0,0-2.62-6.37,67.67,67.67,0,0,0-8.38-13.41,65.63,65.63,0,0,0-5.42-6,67.84,67.84,0,0,0-9.16-7.57A67.06,67.06,0,0,0,240,5.45q-2.31-1-4.71-1.73A67.22,67.22,0,0,0,218.15.5H102.6l11.2,19.41L125,39.33s92.08-.16,93.17,0a29.29,29.29,0,0,1,23.67,19.41,28.32,28.32,0,0,1,1.59,8.46c0,.38,0,.75,0,1.13a29.09,29.09,0,0,1-1.7,9.83,26.77,26.77,0,0,1-2.06,4.52,29.19,29.19,0,0,1-11.88,11.56,24,24,0,0,1-3.05,1.39,28.65,28.65,0,0,1-9.09,2c-.5,0-1,0-1.51,0s-1,0-1.51,0h-54L169.85,117l3.08,5.33h0l8.12,14.08h22.42s7.24-.12,10.7-.12a68,68,0,0,0,11.13-.91l1.32-.23a67.86,67.86,0,0,0,30.67-14.29c1-.84,2-1.7,3-2.59.45-.41.9-.84,1.34-1.28a67.63,67.63,0,0,0,11.66-15.06q1.22-2.13,2.28-4.35a67.43,67.43,0,0,0,5.7-18.19c.07-.41.13-.82.19-1.23,0-.24.07-.48.1-.72a68.44,68.44,0,0,0,.61-9.11A67.34,67.34,0,0,0,281.46,58.74Zm-78-38.82h0Zm56,97.08h0Z"/><polygon class="cls-1" points="107.59 39.32 107.59 39.33 62.75 39.33 51.54 19.91 40.34 0.5 85.18 0.5 96.38 19.91 96.38 19.92 107.59 39.32"/><polygon points="107.59 39.32 107.59 39.33 62.75 39.33 51.54 19.91 40.34 0.5 85.18 0.5 96.38 19.91 96.38 19.92 107.59 39.32"/><polygon class="cls-1" points="45.33 39.33 22.91 39.33 11.7 19.91 0.5 0.51 0.5 0.5 22.92 0.5 34.12 19.91 34.13 19.91 45.33 39.33"/><polygon points="45.33 39.33 22.91 39.33 11.7 19.91 0.5 0.51 0.5 0.5 22.92 0.5 34.12 19.91 34.13 19.91 45.33 39.33"/><polygon class="cls-1" points="264.53 194.65 152.43 194.65 141.22 175.24 130.01 155.82 118.81 136.41 118.8 136.41 107.59 116.99 85.17 116.99 73.97 97.58 73.96 97.58 73.96 97.57 62.76 78.16 130.01 78.16 141.22 97.58 152.43 116.99 163.64 136.41 174.85 155.82 242.11 155.82 253.32 175.23 253.32 175.24 253.33 175.24 264.53 194.65"/><polygon points="264.53 194.65 152.43 194.65 141.22 175.24 130.01 155.82 118.81 136.41 118.8 136.41 107.59 116.99 85.17 116.99 73.97 97.58 73.96 97.58 73.96 97.57 62.76 78.16 130.01 78.16 141.22 97.58 152.43 116.99 163.64 136.41 174.85 155.82 242.11 155.82 253.32 175.23 253.32 175.24 253.33 175.24 264.53 194.65"/></g></g></svg>